G04*
G04 #@! TF.GenerationSoftware,Altium Limited,Altium Designer,18.0.11 (651)*
G04*
G04 Layer_Color=32896*
%FSTAX24Y24*%
%MOIN*%
G70*
G01*
G75*
%ADD11C,0.0079*%
D11*
X017057Y011762D02*
X017133Y011686D01*
Y011535D01*
X017057Y01146D01*
X016755D01*
X01668Y011535D01*
Y011686D01*
X016755Y011762D01*
X016906D01*
Y011611D01*
X01668Y011913D02*
X017133D01*
X01668Y012214D01*
X017133D01*
Y012365D02*
X01668D01*
Y012592D01*
X016755Y012667D01*
X017057D01*
X017133Y012592D01*
Y012365D01*
X01668Y012818D02*
Y012969D01*
Y012893D01*
X017133D01*
X017057Y012818D01*
X015203Y01145D02*
X01475D01*
Y011676D01*
X014825Y011752D01*
X015127D01*
X015203Y011676D01*
Y01145D01*
X01475Y011903D02*
X015203D01*
X01475Y012204D01*
X015203D01*
Y012355D02*
X01475D01*
Y012582D01*
X014825Y012657D01*
X014901D01*
X014976Y012582D01*
Y012355D01*
Y012582D01*
X015052Y012657D01*
X015127D01*
X015203Y012582D01*
Y012355D01*
X013799Y011424D02*
X013346D01*
Y01165D01*
X013422Y011725D01*
X013723D01*
X013799Y01165D01*
Y011424D01*
X013346Y011876D02*
X013799D01*
Y012103D01*
X013723Y012178D01*
X013573D01*
X013497Y012103D01*
Y011876D01*
X013799Y012329D02*
X013346D01*
Y012555D01*
X013422Y012631D01*
X013497D01*
X013573Y012555D01*
Y012329D01*
Y012555D01*
X013648Y012631D01*
X013723D01*
X013799Y012555D01*
Y012329D01*
X010933Y01023D02*
X010631D01*
X01048Y010381D01*
X010631Y010532D01*
X010933D01*
Y010683D02*
X01048D01*
Y010909D01*
X010555Y010984D01*
X010631D01*
X010706Y010909D01*
Y010683D01*
Y010909D01*
X010782Y010984D01*
X010857D01*
X010933Y010909D01*
Y010683D01*
Y011135D02*
X010555D01*
X01048Y011211D01*
Y011362D01*
X010555Y011437D01*
X010933D01*
X010857Y01189D02*
X010933Y011814D01*
Y011663D01*
X010857Y011588D01*
X010782D01*
X010706Y011663D01*
Y011814D01*
X010631Y01189D01*
X010555D01*
X01048Y011814D01*
Y011663D01*
X010555Y011588D01*
M02*
