G04*
G04 #@! TF.GenerationSoftware,Altium Limited,Altium Designer,18.0.11 (651)*
G04*
G04 Layer_Physical_Order=1*
G04 Layer_Color=255*
%FSTAX24Y24*%
%MOIN*%
G70*
G01*
G75*
%ADD12R,0.1378X0.1181*%
%ADD13R,0.0984X0.1181*%
%ADD14R,0.1181X0.1181*%
G04:AMPARAMS|DCode=15|XSize=19.7mil|YSize=82.7mil|CornerRadius=4.9mil|HoleSize=0mil|Usage=FLASHONLY|Rotation=0.000|XOffset=0mil|YOffset=0mil|HoleType=Round|Shape=RoundedRectangle|*
%AMROUNDEDRECTD15*
21,1,0.0197,0.0728,0,0,0.0*
21,1,0.0098,0.0827,0,0,0.0*
1,1,0.0098,0.0049,-0.0364*
1,1,0.0098,-0.0049,-0.0364*
1,1,0.0098,-0.0049,0.0364*
1,1,0.0098,0.0049,0.0364*
%
%ADD15ROUNDEDRECTD15*%
G04:AMPARAMS|DCode=16|XSize=13.8mil|YSize=82.7mil|CornerRadius=3.4mil|HoleSize=0mil|Usage=FLASHONLY|Rotation=0.000|XOffset=0mil|YOffset=0mil|HoleType=Round|Shape=RoundedRectangle|*
%AMROUNDEDRECTD16*
21,1,0.0138,0.0758,0,0,0.0*
21,1,0.0069,0.0827,0,0,0.0*
1,1,0.0069,0.0034,-0.0379*
1,1,0.0069,-0.0034,-0.0379*
1,1,0.0069,-0.0034,0.0379*
1,1,0.0069,0.0034,0.0379*
%
%ADD16ROUNDEDRECTD16*%
%ADD22C,0.0180*%
%ADD23C,0.0138*%
%ADD24C,0.0197*%
G36*
X01737Y01468D02*
X017368Y014546D01*
Y01205D01*
X015306D01*
X015306Y01205D01*
X01453Y01205D01*
X0145Y01208D01*
Y01247D01*
X01463D01*
X01464Y01241D01*
X01469Y01237D01*
X01501D01*
X01506Y01241D01*
X01507Y01247D01*
X01509Y0125D01*
X01536D01*
X015446Y012493D01*
X015486Y012498D01*
X01549D01*
X015496Y012499D01*
X015533Y012504D01*
X015619Y01254D01*
X015648Y012562D01*
X015654Y012566D01*
X015656Y012568D01*
X015693Y012597D01*
X015722Y012634D01*
X015724Y012636D01*
X015728Y012642D01*
X01575Y012671D01*
X015786Y012757D01*
X015791Y012794D01*
X015792Y0128D01*
Y012804D01*
X015798Y01285D01*
X015792Y012896D01*
Y0129D01*
X015791Y012906D01*
X015786Y012943D01*
X01575Y013029D01*
X015728Y013058D01*
X015724Y013064D01*
X015722Y013066D01*
X015693Y013103D01*
X015656Y013132D01*
X015654Y013134D01*
X015648Y013138D01*
X015619Y01316D01*
X015533Y013196D01*
X015496Y013201D01*
X01549Y013202D01*
X015486D01*
X01544Y013208D01*
X015394Y013202D01*
X01539D01*
X015384Y013201D01*
X015347Y013196D01*
X015261Y01316D01*
X015232Y013138D01*
X015226Y013134D01*
X015224Y013132D01*
X015187Y013103D01*
X015161Y013069D01*
X015153Y013063D01*
X015135Y013059D01*
X015093Y013061D01*
X015083Y013069D01*
Y013219D01*
X015072Y013277D01*
X015039Y013326D01*
X014989Y013359D01*
X014931Y013371D01*
X014833D01*
X014774Y013359D01*
X01475Y013343D01*
X014698Y01333D01*
X014654Y01336D01*
X014601Y01337D01*
X014532D01*
X01448Y01336D01*
X014449Y013339D01*
X014418Y01336D01*
X014365Y01337D01*
X014296D01*
X014244Y01336D01*
X014213Y013339D01*
X014181Y01336D01*
X014129Y01337D01*
X01406D01*
X014008Y01336D01*
X013976Y013339D01*
X013945Y01336D01*
X013893Y01337D01*
X013824D01*
X013771Y01336D01*
X01374Y013339D01*
X013709Y01336D01*
X013657Y01337D01*
X013588D01*
X013535Y01336D01*
X013504Y013339D01*
X013473Y01336D01*
X01342Y01337D01*
X013351D01*
X013299Y01336D01*
X013268Y013339D01*
X013237Y01336D01*
X013184Y01337D01*
X013115D01*
X013063Y01336D01*
X013032Y013339D01*
X013Y01336D01*
X012948Y01337D01*
X012879D01*
X012826Y01336D01*
X012782Y01333D01*
X01273Y013343D01*
X012706Y013359D01*
X012648Y013371D01*
X012549D01*
X012491Y013359D01*
X012442Y013326D01*
X012409Y013277D01*
X012397Y013219D01*
Y013065D01*
X012376Y01305D01*
X012324Y013064D01*
X012322Y013066D01*
X012293Y013103D01*
X012256Y013132D01*
X012254Y013134D01*
X012248Y013138D01*
X012219Y01316D01*
X012133Y013196D01*
X012096Y013201D01*
X01209Y013202D01*
X012086D01*
X01204Y013208D01*
X011994Y013202D01*
X01199D01*
X011984Y013201D01*
X011947Y013196D01*
X011861Y01316D01*
X011832Y013138D01*
X011826Y013134D01*
X011824Y013132D01*
X011787Y013103D01*
X011758Y013066D01*
X011756Y013064D01*
X011752Y013058D01*
X01173Y013029D01*
X011694Y012943D01*
X011689Y012906D01*
X011688Y0129D01*
Y012896D01*
X011682Y01285D01*
X011688Y012804D01*
Y0128D01*
X011689Y012794D01*
X011694Y012757D01*
X01173Y012671D01*
X011752Y012642D01*
X011756Y012636D01*
X011758Y012634D01*
X011787Y012597D01*
X011824Y012568D01*
X011826Y012566D01*
X011832Y012562D01*
X011861Y01254D01*
X011947Y012504D01*
X011984Y012499D01*
X01199Y012498D01*
X011994D01*
X01204Y012492D01*
X012086Y012498D01*
X01209D01*
X012096Y012499D01*
X012133Y012504D01*
X012219Y01254D01*
X012248Y012562D01*
X012254Y012566D01*
X012256Y012568D01*
X012293Y012597D01*
X012322Y012634D01*
X012324Y012636D01*
X012376Y01265D01*
X012397Y012635D01*
Y01249D01*
X012409Y012432D01*
X012442Y012383D01*
X012491Y01235D01*
X012511Y012346D01*
X012528Y012291D01*
X012286Y01205D01*
X01132D01*
Y011088D01*
Y011082D01*
X011317Y011068D01*
X011312Y011056D01*
X011305Y011045D01*
X0113Y01104D01*
X01129Y01103D01*
X011268Y011016D01*
X011243Y011005D01*
X011217Y011D01*
X01034D01*
Y01205D01*
X010112D01*
Y01441D01*
X01011D01*
Y01486D01*
X01147Y01545D01*
X0115Y01536D01*
X01152Y01527D01*
X01157Y01522D01*
X011626Y015187D01*
X011675Y015177D01*
Y015179D01*
X015806D01*
Y015177D01*
X015854Y015187D01*
X01592Y01523D01*
X01596Y01529D01*
X01599Y0154D01*
X01601Y01549D01*
X01737Y01468D01*
D02*
G37*
%LPC*%
G36*
X01624Y013734D02*
X016115Y013718D01*
X015998Y013669D01*
X015898Y013592D01*
X015821Y013492D01*
X015772Y013375D01*
X015756Y01325D01*
X015772Y013125D01*
X015821Y013008D01*
X015898Y012908D01*
X015998Y012831D01*
X016115Y012782D01*
X01624Y012766D01*
X016365Y012782D01*
X016482Y012831D01*
X016582Y012908D01*
X016659Y013008D01*
X016708Y013125D01*
X016724Y01325D01*
X016708Y013375D01*
X016659Y013492D01*
X016582Y013592D01*
X016482Y013669D01*
X016365Y013718D01*
X01624Y013734D01*
D02*
G37*
G36*
X01124D02*
X011115Y013718D01*
X010998Y013669D01*
X010898Y013592D01*
X010821Y013492D01*
X010772Y013375D01*
X010756Y01325D01*
X010772Y013125D01*
X010821Y013008D01*
X010898Y012908D01*
X010998Y012831D01*
X011115Y012782D01*
X01124Y012766D01*
X011365Y012782D01*
X011482Y012831D01*
X011582Y012908D01*
X011659Y013008D01*
X011708Y013125D01*
X011724Y01325D01*
X011708Y013375D01*
X011659Y013492D01*
X011582Y013592D01*
X011482Y013669D01*
X011365Y013718D01*
X01124Y013734D01*
D02*
G37*
G36*
X015427Y012235D02*
X015427Y012235D01*
X015427Y012235D01*
D01*
D02*
G37*
%LPD*%
D12*
X01084Y010728D02*
D03*
X01655D02*
D03*
X016693Y015236D02*
D03*
X010787D02*
D03*
D13*
X01223Y010728D02*
D03*
X0135D02*
D03*
D14*
X01491D02*
D03*
D15*
X012598Y012854D02*
D03*
X014882D02*
D03*
D16*
X014567D02*
D03*
X012913D02*
D03*
X014331D02*
D03*
X01315D02*
D03*
X014094D02*
D03*
X013386D02*
D03*
X013622D02*
D03*
X013858D02*
D03*
D22*
X012598D02*
Y013448D01*
D23*
X012913Y012433D02*
Y012854D01*
X01217Y01169D02*
X012913Y012433D01*
X01217Y01111D02*
Y01169D01*
X01315Y011994D02*
Y012854D01*
X013386Y012279D02*
Y012854D01*
X01248Y011669D02*
X013469D01*
X013622Y011822D01*
Y012854D01*
X013858Y011972D02*
Y012854D01*
X014094Y011804D02*
Y012854D01*
X01358Y01129D02*
X014094Y011804D01*
X0135Y01129D02*
X01358D01*
X014331Y011819D02*
X01491Y01124D01*
X014331Y011819D02*
Y012854D01*
X01656Y0109D02*
Y0112D01*
X015983Y011777D02*
X01656Y0112D01*
X015903Y011777D02*
X015983D01*
X014952D02*
X015903D01*
D24*
X01062Y0123D02*
D03*
X01116Y01228D02*
D03*
X013386Y012279D02*
D03*
X01248Y011669D02*
D03*
X013858Y011972D02*
D03*
X014952Y011777D02*
D03*
X01524Y012313D02*
D03*
X014895Y012193D02*
D03*
X014587D02*
D03*
X013209Y011957D02*
D03*
X012946Y011669D02*
D03*
X012713D02*
D03*
M02*
